<svg width="18" height="18" viewBox="0 0 18 18" fill="none" xmlns="http://www.w3.org/2000/svg">
    <path d="M7.48652 1.61385C8.0822 0.3224 9.91768 0.3224 10.5134 1.61385L11.9008 4.62176C12.1436 5.14811 12.6424 5.51051 13.218 5.57876L16.5074 5.96877C17.9197 6.13623 18.4869 7.88187 17.4428 8.84749L15.0108 11.0965C14.5852 11.49 14.3947 12.0764 14.5077 12.6449L15.1532 15.8939C15.4304 17.2888 13.9455 18.3677 12.7045 17.673L9.81401 16.0551C9.30822 15.772 8.69166 15.772 8.18587 16.0551L5.29542 17.673C4.0544 18.3677 2.56947 17.2888 2.84665 15.8939L3.49221 12.6449C3.60518 12.0764 3.41465 11.49 2.98909 11.0965L0.557128 8.84749C-0.487038 7.88187 0.0801556 6.13623 1.49248 5.96877L4.78191 5.57876C5.35751 5.51051 5.85632 5.14811 6.0991 4.62176L7.48652 1.61385Z" fill="#FFCE5C"/>
</svg>
