<svg width="18" height="12" viewBox="0 0 18 12" fill="none" xmlns="http://www.w3.org/2000/svg">
    <path d="M7.33341 5.99959C7.33341 5.07912 8.07961 4.33293 9.00008 4.33293C9.92056 4.33293 10.6667 5.07912 10.6667 5.99959C10.6667 6.92007 9.92056 7.66626 9.00008 7.66626C8.07961 7.66626 7.33341 6.92007 7.33341 5.99959Z" fill="#9BB068"/>
    <path fill-rule="evenodd" clip-rule="evenodd" d="M0.666748 5.99959C0.666748 2.77793 3.27842 0.16626 6.50008 0.16626H11.5001C14.7217 0.16626 17.3334 2.77793 17.3334 5.99959C17.3334 9.22125 14.7217 11.8329 11.5001 11.8329H6.50008C3.27842 11.8329 0.666748 9.22125 0.666748 5.99959ZM9.00008 2.66626C7.15913 2.66626 5.66675 4.15864 5.66675 5.99959C5.66675 7.84054 7.15913 9.33293 9.00008 9.33293C10.841 9.33293 12.3334 7.84054 12.3334 5.99959C12.3334 4.15864 10.841 2.66626 9.00008 2.66626Z" fill="#9BB068"/>
</svg>
